<svg xmlns="http://www.w3.org/2000/svg" viewBox="-272 395.3 50.6 50.6"><path fill="none" stroke="#5A5A5A" stroke-width="1.75" stroke-linecap="square" stroke-linejoin="round" stroke-miterlimit="10" d="M-233.3 413.9h-8.6"/><path fill="none" stroke="#5A5A5A" stroke-width="1.75" stroke-linecap="round" stroke-linejoin="round" stroke-miterlimit="10" d="M-246.7 396.8c-6.6 0-12.2 2.3-16.8 7-4.7 4.6-7 10.3-7 16.8s2.3 12.2 7 16.8c4.7 4.7 10.3 7 16.8 7 6.6 0 12.2-2.3 16.8-7 4.7-4.7 7-10.3 7-16.8s-2.3-12.2-7-16.8c-4.6-4.7-10.2-7-16.8-7z"/><path fill="none" stroke="#5A5A5A" stroke-width="1.75" stroke-linecap="square" stroke-miterlimit="10" d="M-244.4 422.4h13.6c-.2-1.5-.9-2.8-2-4-1.3-1.3-3-2-4.9-2-1.9 0-3.5.7-4.9 2-1.3 1.4-2 3-2 4.9 0 1.9.7 3.5 2 4.9 1.4 1.4 3 2 4.9 2 1.9 0 3.5-.7 4.9-2 .3-.3.5-.5.7-.8"/><path fill="none" stroke="#5A5A5A" stroke-width="1.75" stroke-linecap="round" stroke-miterlimit="10" d="M-259.1 430.6h7.4c1.3-.1 2.4-.7 3.4-1.6 1.1-1.1 1.6-2.4 1.6-4 0-1.5-.5-2.9-1.6-4-1-1-2.5-1.6-3.3-1.6h-.6-6.9v11.1-22.1h7.6c1.3.1 2.4.7 3.3 1.6 1.1 1.1 1.6 2.4 1.6 3.9s-.5 2.8-1.6 3.9c-.9 1-2.7 1.6-3.3 1.6"/></svg>