<svg xmlns="http://www.w3.org/2000/svg" viewBox="-272 395.3 50.6 50.6"><path fill="none" stroke="#FF1E78" stroke-width="1.75" stroke-miterlimit="10" d="M-235.5 441.8c2.1-1.1 4-2.5 5.7-4.3 4.2-4.2 6.6-9.3 6.9-15.1 0-.6 0-1.2.1-1.8 0-6.6-2.3-12.2-7-16.9-.4-.4-.9-.8-1.3-1.2-4.4-3.9-9.6-5.8-15.6-5.8-4.5 0-8.5 1.1-12.1 3.2"/><path fill="none" stroke="#FF1E78" stroke-width="1.75" stroke-miterlimit="10" d="M-235.5 441.8c.1-8-1.1-15-3.5-21-1.1-2.6-2.3-5.1-3.9-7.3-3.8-5.7-9.1-10.2-15.9-13.6"/><path fill="none" stroke="#FF1E78" stroke-width="1.75" stroke-miterlimit="10" d="M-231.1 402.5c-2.7 4.9-6.7 8.5-11.8 11-6.9 3.3-16.1 4.5-27.4 3.4"/><path fill="none" stroke="#FF1E78" stroke-width="1.75" stroke-miterlimit="10" d="M-258.7 399.9c-1.7 1-3.3 2.3-4.8 3.8-3.8 3.8-6 8.2-6.7 13.2-.2 1.2-.3 2.4-.3 3.7 0 6.6 2.3 12.2 7 16.9.2.2.4.4.6.5 4.6 4.3 10 6.4 16.3 6.5 4.1 0 7.8-.9 11.1-2.7"/><path fill="none" stroke="#FF1E78" stroke-width="1.75" stroke-miterlimit="10" d="M-222.8 422.3c-5.8-1.8-11.2-2.3-16.2-1.6-9.4 1.3-17.4 7.1-24 17.2"/></svg>